  0
SECTION
  2
HEADER
  9
$EXTMIN
 10
-0.162000
 20
-0.174000
  9
$EXTMAX
 10
0.905000
 20
0.905000
  9
$LIMMIN
 10
-0.162000
 20
-0.174000
  9
$LIMMAX
 10
0.905000
 20
0.905000
  9
$FILLMODE
 70
  1
  0
ENDSEC
  0
SECTION
  2
TABLES
  0
TABLE
  2
LTYPE
 70
  1
  0
LTYPE
  2
CONTINUOUS
 70
 64
  3
Solid line
 72
 65
 73
  0
 40
0.0
  0
ENDTAB
  0
TABLE
  2
LAYER
 70
 1
  0
LAYER
  2
0
 70
  0
 62
7
  6
CONTINUOUS
  0
LAYER
  2
gg1
 70
  0
 62
1
  6
CONTINUOUS
  0
ENDTAB
  0
TABLE
  2
STYLE
 70
  1
  0
STYLE
  2
STANDARD
 70
  0
 40
0.0
 41
1.0
 50
0.0
 71
  0
 42
0.2
  3
txt
  4

  0
ENDTAB
  0
ENDSEC
  0
SECTION
  2
BLOCKS
  0
BLOCK
  8
0
  2
D10
 70
64
 10
0.0
 20
0.0
  3
D10
  0
CIRCLE
  8
0
 10
0.000000
 20
0.000000
 40
0.002500
 0
ENDBLK
  8
0
  0
BLOCK
  8
0
  2
D11
 70
64
 10
0.0
 20
0.0
  3
D11
  0
CIRCLE
  8
0
 10
0.000000
 20
0.000000
 40
0.005000
 0
ENDBLK
  8
0
  0
BLOCK
  8
0
  2
D12
 70
64
 10
0.0
 20
0.0
  3
D12
  0
CIRCLE
  8
0
 10
0.000000
 20
0.000000
 40
0.003000
 0
ENDBLK
  8
0
  0
BLOCK
  8
0
  2
D13
 70
64
 10
0.0
 20
0.0
  3
D13
  0
CIRCLE
  8
0
 10
0.000000
 20
0.000000
 40
0.001000
 0
ENDBLK
  8
0
  0
ENDSEC
  0
SECTION
  2
ENTITIES
  0
POLYLINE
  8
gg1
 62
1
 40
0.000000
 41
0.000000
 66
  1
  0
VERTEX
  8
gg1
 10
0.000000
 20
0.000000
  0
VERTEX
  8
gg1
 10
0.000000
 20
0.900000
  0
VERTEX
  8
gg1
 10
0.900000
 20
0.900000
  0
SEQEND
  8
gg1
  0
POLYLINE
  8
gg1
 62
1
 40
0.000000
 41
0.000000
 66
  1
  0
VERTEX
  8
gg1
 10
0.900000
 20
0.000000
  0
VERTEX
  8
gg1
 10
0.900000
 20
0.900000
  0
SEQEND
  8
gg1
  0
POLYLINE
  8
gg1
 62
1
 40
0.000000
 41
0.000000
 66
  1
  0
VERTEX
  8
gg1
 10
0.000000
 20
0.000000
  0
VERTEX
  8
gg1
 10
0.900000
 20
0.000000
  0
SEQEND
  8
gg1
  0
POLYLINE
  8
gg1
 62
1
 40
0.000000
 41
0.000000
 66
  1
  0
VERTEX
  8
gg1
 10
0.000000
 20
-0.135000
  0
VERTEX
  8
gg1
 10
0.060000
 20
-0.115000
  0
SEQEND
  8
gg1
  0
POLYLINE
  8
gg1
 62
1
 40
0.000000
 41
0.000000
 66
  1
  0
VERTEX
  8
gg1
 10
0.000000
 20
-0.135000
  0
VERTEX
  8
gg1
 10
0.060000
 20
-0.155000
  0
SEQEND
  8
gg1
  0
POLYLINE
  8
gg1
 62
1
 40
0.000000
 41
0.000000
 66
  1
  0
VERTEX
  8
gg1
 10
0.840000
 20
-0.155000
  0
VERTEX
  8
gg1
 10
0.900000
 20
-0.135000
  0
SEQEND
  8
gg1
  0
POLYLINE
  8
gg1
 62
1
 40
0.000000
 41
0.000000
 66
  1
  0
VERTEX
  8
gg1
 10
0.840000
 20
-0.115000
  0
VERTEX
  8
gg1
 10
0.900000
 20
-0.135000
  0
SEQEND
  8
gg1
  0
POLYLINE
  8
gg1
 62
1
 40
0.000000
 41
0.000000
 66
  1
  0
VERTEX
  8
gg1
 10
0.000000
 20
-0.135000
  0
VERTEX
  8
gg1
 10
0.263000
 20
-0.135000
  0
SEQEND
  8
gg1
  0
POLYLINE
  8
gg1
 62
1
 40
0.000000
 41
0.000000
 66
  1
  0
VERTEX
  8
gg1
 10
0.605000
 20
-0.135000
  0
VERTEX
  8
gg1
 10
0.900000
 20
-0.135000
  0
SEQEND
  8
gg1
  0
POLYLINE
  8
gg1
 62
1
 40
0.000000
 41
0.000000
 66
  1
  0
VERTEX
  8
gg1
 10
0.000000
 20
-0.145000
  0
VERTEX
  8
gg1
 10
0.000000
 20
-0.012500
  0
SEQEND
  8
gg1
  0
POLYLINE
  8
gg1
 62
1
 40
0.000000
 41
0.000000
 66
  1
  0
VERTEX
  8
gg1
 10
0.900000
 20
-0.145000
  0
VERTEX
  8
gg1
 10
0.900000
 20
-0.012500
  0
SEQEND
  8
gg1
  0
POLYLINE
  8
gg1
 62
1
 40
0.000000
 41
0.000000
 66
  1
  0
VERTEX
  8
gg1
 10
-0.155000
 20
0.060000
  0
VERTEX
  8
gg1
 10
-0.135000
 20
0.000000
  0
VERTEX
  8
gg1
 10
-0.115000
 20
0.060000
  0
SEQEND
  8
gg1
  0
POLYLINE
  8
gg1
 62
1
 40
0.000000
 41
0.000000
 66
  1
  0
VERTEX
  8
gg1
 10
-0.135000
 20
0.900000
  0
VERTEX
  8
gg1
 10
-0.115000
 20
0.840000
  0
SEQEND
  8
gg1
  0
POLYLINE
  8
gg1
 62
1
 40
0.000000
 41
0.000000
 66
  1
  0
VERTEX
  8
gg1
 10
-0.155000
 20
0.840000
  0
VERTEX
  8
gg1
 10
-0.135000
 20
0.900000
  0
SEQEND
  8
gg1
  0
POLYLINE
  8
gg1
 62
1
 40
0.000000
 41
0.000000
 66
  1
  0
VERTEX
  8
gg1
 10
-0.135000
 20
0.000000
  0
VERTEX
  8
gg1
 10
-0.135000
 20
0.263000
  0
SEQEND
  8
gg1
  0
POLYLINE
  8
gg1
 62
1
 40
0.000000
 41
0.000000
 66
  1
  0
VERTEX
  8
gg1
 10
-0.135000
 20
0.605000
  0
VERTEX
  8
gg1
 10
-0.135000
 20
0.900000
  0
SEQEND
  8
gg1
  0
POLYLINE
  8
gg1
 62
1
 40
0.000000
 41
0.000000
 66
  1
  0
VERTEX
  8
gg1
 10
-0.145000
 20
0.000000
  0
VERTEX
  8
gg1
 10
-0.012500
 20
0.000000
  0
SEQEND
  8
gg1
  0
POLYLINE
  8
gg1
 62
1
 40
0.000000
 41
0.000000
 66
  1
  0
VERTEX
  8
gg1
 10
-0.145000
 20
0.900000
  0
VERTEX
  8
gg1
 10
-0.012500
 20
0.900000
  0
SEQEND
  8
gg1
  0
POLYLINE
  8
gg1
 62
1
 40
0.000000
 41
0.000000
 66
  1
  0
VERTEX
  8
gg1
 10
0.279000
 20
-0.161000
  0
VERTEX
  8
gg1
 10
0.289000
 20
-0.171000
  0
VERTEX
  8
gg1
 10
0.309000
 20
-0.171000
  0
VERTEX
  8
gg1
 10
0.319000
 20
-0.161000
  0
VERTEX
  8
gg1
 10
0.319000
 20
-0.121000
  0
VERTEX
  8
gg1
 10
0.309000
 20
-0.111000
  0
VERTEX
  8
gg1
 10
0.289000
 20
-0.111000
  0
VERTEX
  8
gg1
 10
0.279000
 20
-0.121000
  0
VERTEX
  8
gg1
 10
0.279000
 20
-0.131000
  0
VERTEX
  8
gg1
 10
0.289000
 20
-0.141000
  0
VERTEX
  8
gg1
 10
0.319000
 20
-0.141000
  0
SEQEND
  8
gg1
  0
POLYLINE
  8
gg1
 62
1
 40
0.000000
 41
0.000000
 66
  1
  0
VERTEX
  8
gg1
 10
0.339000
 20
-0.121000
  0
VERTEX
  8
gg1
 10
0.349000
 20
-0.111000
  0
VERTEX
  8
gg1
 10
0.369000
 20
-0.111000
  0
VERTEX
  8
gg1
 10
0.379000
 20
-0.121000
  0
VERTEX
  8
gg1
 10
0.379000
 20
-0.161000
  0
VERTEX
  8
gg1
 10
0.369000
 20
-0.171000
  0
VERTEX
  8
gg1
 10
0.349000
 20
-0.171000
  0
VERTEX
  8
gg1
 10
0.339000
 20
-0.161000
  0
VERTEX
  8
gg1
 10
0.339000
 20
-0.121000
  0
SEQEND
  8
gg1
  0
POLYLINE
  8
gg1
 62
1
 40
0.000000
 41
0.000000
 66
  1
  0
VERTEX
  8
gg1
 10
0.399000
 20
-0.121000
  0
VERTEX
  8
gg1
 10
0.409000
 20
-0.111000
  0
VERTEX
  8
gg1
 10
0.429000
 20
-0.111000
  0
VERTEX
  8
gg1
 10
0.439000
 20
-0.121000
  0
VERTEX
  8
gg1
 10
0.439000
 20
-0.161000
  0
VERTEX
  8
gg1
 10
0.429000
 20
-0.171000
  0
VERTEX
  8
gg1
 10
0.409000
 20
-0.171000
  0
VERTEX
  8
gg1
 10
0.399000
 20
-0.161000
  0
VERTEX
  8
gg1
 10
0.399000
 20
-0.121000
  0
SEQEND
  8
gg1
  0
POLYLINE
  8
gg1
 62
1
 40
0.000000
 41
0.000000
 66
  1
  0
VERTEX
  8
gg1
 10
0.459000
 20
-0.171000
  0
VERTEX
  8
gg1
 10
0.459000
 20
-0.131000
  0
VERTEX
  8
gg1
 10
0.469000
 20
-0.131000
  0
VERTEX
  8
gg1
 10
0.479000
 20
-0.141000
  0
VERTEX
  8
gg1
 10
0.479000
 20
-0.171000
  0
VERTEX
  8
gg1
 10
0.479000
 20
-0.141000
  0
VERTEX
  8
gg1
 10
0.489000
 20
-0.131000
  0
VERTEX
  8
gg1
 10
0.499000
 20
-0.141000
  0
VERTEX
  8
gg1
 10
0.499000
 20
-0.171000
  0
SEQEND
  8
gg1
  0
POLYLINE
  8
gg1
 62
1
 40
0.000000
 41
0.000000
 66
  1
  0
VERTEX
  8
gg1
 10
0.519000
 20
-0.171000
  0
VERTEX
  8
gg1
 10
0.539000
 20
-0.171000
  0
VERTEX
  8
gg1
 10
0.529000
 20
-0.171000
  0
VERTEX
  8
gg1
 10
0.529000
 20
-0.131000
  0
VERTEX
  8
gg1
 10
0.519000
 20
-0.131000
  0
SEQEND
  8
gg1
  0
POLYLINE
  8
gg1
 62
1
 40
0.000000
 41
0.000000
 66
  1
  0
VERTEX
  8
gg1
 10
0.569000
 20
-0.171000
  0
VERTEX
  8
gg1
 10
0.588900
 20
-0.171000
  0
VERTEX
  8
gg1
 10
0.579000
 20
-0.171000
  0
VERTEX
  8
gg1
 10
0.579000
 20
-0.111000
  0
VERTEX
  8
gg1
 10
0.569000
 20
-0.111000
  0
SEQEND
  8
gg1
  0
POLYLINE
  8
gg1
 62
1
 40
0.000000
 41
0.000000
 66
  1
  0
VERTEX
  8
gg1
 10
-0.109000
 20
0.279000
  0
VERTEX
  8
gg1
 10
-0.099000
 20
0.289000
  0
VERTEX
  8
gg1
 10
-0.099000
 20
0.309000
  0
VERTEX
  8
gg1
 10
-0.109000
 20
0.319000
  0
VERTEX
  8
gg1
 10
-0.149000
 20
0.319000
  0
VERTEX
  8
gg1
 10
-0.159000
 20
0.309000
  0
VERTEX
  8
gg1
 10
-0.159000
 20
0.289000
  0
VERTEX
  8
gg1
 10
-0.149000
 20
0.279000
  0
VERTEX
  8
gg1
 10
-0.139000
 20
0.279000
  0
VERTEX
  8
gg1
 10
-0.129000
 20
0.289000
  0
VERTEX
  8
gg1
 10
-0.129000
 20
0.319000
  0
SEQEND
  8
gg1
  0
POLYLINE
  8
gg1
 62
1
 40
0.000000
 41
0.000000
 66
  1
  0
VERTEX
  8
gg1
 10
-0.149000
 20
0.339000
  0
VERTEX
  8
gg1
 10
-0.159000
 20
0.349000
  0
VERTEX
  8
gg1
 10
-0.159000
 20
0.369000
  0
VERTEX
  8
gg1
 10
-0.149000
 20
0.379000
  0
VERTEX
  8
gg1
 10
-0.109000
 20
0.379000
  0
VERTEX
  8
gg1
 10
-0.099000
 20
0.369000
  0
VERTEX
  8
gg1
 10
-0.099000
 20
0.349000
  0
VERTEX
  8
gg1
 10
-0.109000
 20
0.339000
  0
VERTEX
  8
gg1
 10
-0.149000
 20
0.339000
  0
SEQEND
  8
gg1
  0
POLYLINE
  8
gg1
 62
1
 40
0.000000
 41
0.000000
 66
  1
  0
VERTEX
  8
gg1
 10
-0.149000
 20
0.399000
  0
VERTEX
  8
gg1
 10
-0.159000
 20
0.409000
  0
VERTEX
  8
gg1
 10
-0.159000
 20
0.429000
  0
VERTEX
  8
gg1
 10
-0.149000
 20
0.439000
  0
VERTEX
  8
gg1
 10
-0.109000
 20
0.439000
  0
VERTEX
  8
gg1
 10
-0.099000
 20
0.429000
  0
VERTEX
  8
gg1
 10
-0.099000
 20
0.409000
  0
VERTEX
  8
gg1
 10
-0.109000
 20
0.399000
  0
VERTEX
  8
gg1
 10
-0.149000
 20
0.399000
  0
SEQEND
  8
gg1
  0
POLYLINE
  8
gg1
 62
1
 40
0.000000
 41
0.000000
 66
  1
  0
VERTEX
  8
gg1
 10
-0.099000
 20
0.459000
  0
VERTEX
  8
gg1
 10
-0.139000
 20
0.459000
  0
VERTEX
  8
gg1
 10
-0.139000
 20
0.469000
  0
VERTEX
  8
gg1
 10
-0.129000
 20
0.479000
  0
VERTEX
  8
gg1
 10
-0.099000
 20
0.479000
  0
VERTEX
  8
gg1
 10
-0.129000
 20
0.479000
  0
VERTEX
  8
gg1
 10
-0.139000
 20
0.489000
  0
VERTEX
  8
gg1
 10
-0.129000
 20
0.499000
  0
VERTEX
  8
gg1
 10
-0.099000
 20
0.499000
  0
SEQEND
  8
gg1
  0
POLYLINE
  8
gg1
 62
1
 40
0.000000
 41
0.000000
 66
  1
  0
VERTEX
  8
gg1
 10
-0.099000
 20
0.519000
  0
VERTEX
  8
gg1
 10
-0.099000
 20
0.539000
  0
VERTEX
  8
gg1
 10
-0.099000
 20
0.529000
  0
VERTEX
  8
gg1
 10
-0.139000
 20
0.529000
  0
VERTEX
  8
gg1
 10
-0.139000
 20
0.519000
  0
SEQEND
  8
gg1
  0
POLYLINE
  8
gg1
 62
1
 40
0.000000
 41
0.000000
 66
  1
  0
VERTEX
  8
gg1
 10
-0.099000
 20
0.569000
  0
VERTEX
  8
gg1
 10
-0.099000
 20
0.588900
  0
VERTEX
  8
gg1
 10
-0.099000
 20
0.579000
  0
VERTEX
  8
gg1
 10
-0.159000
 20
0.579000
  0
VERTEX
  8
gg1
 10
-0.159000
 20
0.569000
  0
SEQEND
  8
gg1
  0
POLYLINE
  8
gg1
 62
1
 40
0.000000
 41
0.000000
 66
  1
  0
VERTEX
  8
gg1
 10
0.230000
 20
0.488600
  0
VERTEX
  8
gg1
 10
0.250000
 20
0.488600
  0
SEQEND
  8
gg1
  0
POLYLINE
  8
gg1
 62
1
 40
0.000000
 41
0.000000
 66
  1
  0
VERTEX
  8
gg1
 10
0.240000
 20
0.478600
  0
VERTEX
  8
gg1
 10
0.240000
 20
0.498600
  0
SEQEND
  8
gg1
  0
POLYLINE
  8
gg1
 62
1
 40
0.000000
 41
0.000000
 66
  1
  0
VERTEX
  8
gg1
 10
0.488900
 20
0.165000
  0
VERTEX
  8
gg1
 10
0.548900
 20
0.165000
  0
SEQEND
  8
gg1
  0
POLYLINE
  8
gg1
 62
1
 40
0.000000
 41
0.000000
 66
  1
  0
VERTEX
  8
gg1
 10
0.518900
 20
0.135000
  0
VERTEX
  8
gg1
 10
0.518900
 20
0.195000
  0
SEQEND
  8
gg1
  0
POLYLINE
  8
gg1
 62
1
 40
0.000000
 41
0.000000
 66
  1
  0
VERTEX
  8
gg1
 10
0.626700
 20
0.165000
  0
VERTEX
  8
gg1
 10
0.686700
 20
0.165000
  0
SEQEND
  8
gg1
  0
POLYLINE
  8
gg1
 62
1
 40
0.000000
 41
0.000000
 66
  1
  0
VERTEX
  8
gg1
 10
0.656700
 20
0.135000
  0
VERTEX
  8
gg1
 10
0.656700
 20
0.195000
  0
SEQEND
  8
gg1
  0
POLYLINE
  8
gg1
 62
1
 40
0.000000
 41
0.000000
 66
  1
  0
VERTEX
  8
gg1
 10
0.351100
 20
0.165000
  0
VERTEX
  8
gg1
 10
0.411100
 20
0.165000
  0
SEQEND
  8
gg1
  0
POLYLINE
  8
gg1
 62
1
 40
0.000000
 41
0.000000
 66
  1
  0
VERTEX
  8
gg1
 10
0.381100
 20
0.135000
  0
VERTEX
  8
gg1
 10
0.381100
 20
0.195000
  0
SEQEND
  8
gg1
  0
POLYLINE
  8
gg1
 62
1
 40
0.000000
 41
0.000000
 66
  1
  0
VERTEX
  8
gg1
 10
0.213300
 20
0.165000
  0
VERTEX
  8
gg1
 10
0.273300
 20
0.165000
  0
SEQEND
  8
gg1
  0
POLYLINE
  8
gg1
 62
1
 40
0.000000
 41
0.000000
 66
  1
  0
VERTEX
  8
gg1
 10
0.243300
 20
0.135000
  0
VERTEX
  8
gg1
 10
0.243300
 20
0.195000
  0
SEQEND
  8
gg1
  0
POLYLINE
  8
gg1
 62
1
 40
0.000000
 41
0.000000
 66
  1
  0
VERTEX
  8
gg1
 10
0.042000
 20
0.085000
  0
VERTEX
  8
gg1
 10
0.128000
 20
0.085000
  0
SEQEND
  8
gg1
  0
POLYLINE
  8
gg1
 62
1
 40
0.000000
 41
0.000000
 66
  1
  0
VERTEX
  8
gg1
 10
0.085000
 20
0.042000
  0
VERTEX
  8
gg1
 10
0.085000
 20
0.128000
  0
SEQEND
  8
gg1
  0
POLYLINE
  8
gg1
 62
1
 40
0.000000
 41
0.000000
 66
  1
  0
VERTEX
  8
gg1
 10
0.772000
 20
0.085000
  0
VERTEX
  8
gg1
 10
0.858000
 20
0.085000
  0
SEQEND
  8
gg1
  0
POLYLINE
  8
gg1
 62
1
 40
0.000000
 41
0.000000
 66
  1
  0
VERTEX
  8
gg1
 10
0.815000
 20
0.042000
  0
VERTEX
  8
gg1
 10
0.815000
 20
0.128000
  0
SEQEND
  8
gg1
  0
POLYLINE
  8
gg1
 62
1
 40
0.000000
 41
0.000000
 66
  1
  0
VERTEX
  8
gg1
 10
0.630000
 20
0.050000
  0
VERTEX
  8
gg1
 10
0.670000
 20
0.050000
  0
SEQEND
  8
gg1
  0
POLYLINE
  8
gg1
 62
1
 40
0.000000
 41
0.000000
 66
  1
  0
VERTEX
  8
gg1
 10
0.650000
 20
0.030000
  0
VERTEX
  8
gg1
 10
0.650000
 20
0.070000
  0
SEQEND
  8
gg1
  0
POLYLINE
  8
gg1
 62
1
 40
0.000000
 41
0.000000
 66
  1
  0
VERTEX
  8
gg1
 10
0.530000
 20
0.050000
  0
VERTEX
  8
gg1
 10
0.570000
 20
0.050000
  0
SEQEND
  8
gg1
  0
POLYLINE
  8
gg1
 62
1
 40
0.000000
 41
0.000000
 66
  1
  0
VERTEX
  8
gg1
 10
0.550000
 20
0.030000
  0
VERTEX
  8
gg1
 10
0.550000
 20
0.070000
  0
SEQEND
  8
gg1
  0
POLYLINE
  8
gg1
 62
1
 40
0.000000
 41
0.000000
 66
  1
  0
VERTEX
  8
gg1
 10
0.430000
 20
0.050000
  0
VERTEX
  8
gg1
 10
0.470000
 20
0.050000
  0
SEQEND
  8
gg1
  0
POLYLINE
  8
gg1
 62
1
 40
0.000000
 41
0.000000
 66
  1
  0
VERTEX
  8
gg1
 10
0.450000
 20
0.030000
  0
VERTEX
  8
gg1
 10
0.450000
 20
0.070000
  0
SEQEND
  8
gg1
  0
POLYLINE
  8
gg1
 62
1
 40
0.000000
 41
0.000000
 66
  1
  0
VERTEX
  8
gg1
 10
0.330000
 20
0.050000
  0
VERTEX
  8
gg1
 10
0.370000
 20
0.050000
  0
SEQEND
  8
gg1
  0
POLYLINE
  8
gg1
 62
1
 40
0.000000
 41
0.000000
 66
  1
  0
VERTEX
  8
gg1
 10
0.350000
 20
0.030000
  0
VERTEX
  8
gg1
 10
0.350000
 20
0.070000
  0
SEQEND
  8
gg1
  0
POLYLINE
  8
gg1
 62
1
 40
0.000000
 41
0.000000
 66
  1
  0
VERTEX
  8
gg1
 10
0.230000
 20
0.050000
  0
VERTEX
  8
gg1
 10
0.270000
 20
0.050000
  0
SEQEND
  8
gg1
  0
POLYLINE
  8
gg1
 62
1
 40
0.000000
 41
0.000000
 66
  1
  0
VERTEX
  8
gg1
 10
0.250000
 20
0.030000
  0
VERTEX
  8
gg1
 10
0.250000
 20
0.070000
  0
SEQEND
  8
gg1
  0
POLYLINE
  8
gg1
 62
1
 40
0.000000
 41
0.000000
 66
  1
  0
VERTEX
  8
gg1
 10
0.762500
 20
0.270000
  0
VERTEX
  8
gg1
 10
0.777500
 20
0.270000
  0
SEQEND
  8
gg1
  0
POLYLINE
  8
gg1
 62
1
 40
0.000000
 41
0.000000
 66
  1
  0
VERTEX
  8
gg1
 10
0.770000
 20
0.262500
  0
VERTEX
  8
gg1
 10
0.770000
 20
0.277500
  0
SEQEND
  8
gg1
  0
POLYLINE
  8
gg1
 62
1
 40
0.000000
 41
0.000000
 66
  1
  0
VERTEX
  8
gg1
 10
0.807500
 20
0.270000
  0
VERTEX
  8
gg1
 10
0.822500
 20
0.270000
  0
SEQEND
  8
gg1
  0
POLYLINE
  8
gg1
 62
1
 40
0.000000
 41
0.000000
 66
  1
  0
VERTEX
  8
gg1
 10
0.815000
 20
0.262500
  0
VERTEX
  8
gg1
 10
0.815000
 20
0.277500
  0
SEQEND
  8
gg1
  0
POLYLINE
  8
gg1
 62
1
 40
0.000000
 41
0.000000
 66
  1
  0
VERTEX
  8
gg1
 10
0.782500
 20
0.517500
  0
VERTEX
  8
gg1
 10
0.797500
 20
0.517500
  0
SEQEND
  8
gg1
  0
POLYLINE
  8
gg1
 62
1
 40
0.000000
 41
0.000000
 66
  1
  0
VERTEX
  8
gg1
 10
0.790000
 20
0.510000
  0
VERTEX
  8
gg1
 10
0.790000
 20
0.525000
  0
SEQEND
  8
gg1
  0
POLYLINE
  8
gg1
 62
1
 40
0.000000
 41
0.000000
 66
  1
  0
VERTEX
  8
gg1
 10
0.742500
 20
0.500000
  0
VERTEX
  8
gg1
 10
0.757500
 20
0.500000
  0
SEQEND
  8
gg1
  0
POLYLINE
  8
gg1
 62
1
 40
0.000000
 41
0.000000
 66
  1
  0
VERTEX
  8
gg1
 10
0.750000
 20
0.492500
  0
VERTEX
  8
gg1
 10
0.750000
 20
0.507500
  0
SEQEND
  8
gg1
  0
POLYLINE
  8
gg1
 62
1
 40
0.000000
 41
0.000000
 66
  1
  0
VERTEX
  8
gg1
 10
0.847500
 20
0.250000
  0
VERTEX
  8
gg1
 10
0.862500
 20
0.250000
  0
SEQEND
  8
gg1
  0
POLYLINE
  8
gg1
 62
1
 40
0.000000
 41
0.000000
 66
  1
  0
VERTEX
  8
gg1
 10
0.855000
 20
0.242500
  0
VERTEX
  8
gg1
 10
0.855000
 20
0.257500
  0
SEQEND
  8
gg1
  0
POLYLINE
  8
gg1
 62
1
 40
0.000000
 41
0.000000
 66
  1
  0
VERTEX
  8
gg1
 10
0.847500
 20
0.295000
  0
VERTEX
  8
gg1
 10
0.862500
 20
0.295000
  0
SEQEND
  8
gg1
  0
POLYLINE
  8
gg1
 62
1
 40
0.000000
 41
0.000000
 66
  1
  0
VERTEX
  8
gg1
 10
0.855000
 20
0.287500
  0
VERTEX
  8
gg1
 10
0.855000
 20
0.302500
  0
SEQEND
  8
gg1
  0
POLYLINE
  8
gg1
 62
1
 40
0.000000
 41
0.000000
 66
  1
  0
VERTEX
  8
gg1
 10
0.847500
 20
0.340000
  0
VERTEX
  8
gg1
 10
0.862500
 20
0.340000
  0
SEQEND
  8
gg1
  0
POLYLINE
  8
gg1
 62
1
 40
0.000000
 41
0.000000
 66
  1
  0
VERTEX
  8
gg1
 10
0.855000
 20
0.332500
  0
VERTEX
  8
gg1
 10
0.855000
 20
0.347500
  0
SEQEND
  8
gg1
  0
POLYLINE
  8
gg1
 62
1
 40
0.000000
 41
0.000000
 66
  1
  0
VERTEX
  8
gg1
 10
0.847500
 20
0.385000
  0
VERTEX
  8
gg1
 10
0.862500
 20
0.385000
  0
SEQEND
  8
gg1
  0
POLYLINE
  8
gg1
 62
1
 40
0.000000
 41
0.000000
 66
  1
  0
VERTEX
  8
gg1
 10
0.855000
 20
0.377500
  0
VERTEX
  8
gg1
 10
0.855000
 20
0.392500
  0
SEQEND
  8
gg1
  0
POLYLINE
  8
gg1
 62
1
 40
0.000000
 41
0.000000
 66
  1
  0
VERTEX
  8
gg1
 10
0.847500
 20
0.430000
  0
VERTEX
  8
gg1
 10
0.862500
 20
0.430000
  0
SEQEND
  8
gg1
  0
POLYLINE
  8
gg1
 62
1
 40
0.000000
 41
0.000000
 66
  1
  0
VERTEX
  8
gg1
 10
0.855000
 20
0.422500
  0
VERTEX
  8
gg1
 10
0.855000
 20
0.437500
  0
SEQEND
  8
gg1
  0
POLYLINE
  8
gg1
 62
1
 40
0.000000
 41
0.000000
 66
  1
  0
VERTEX
  8
gg1
 10
0.482500
 20
0.450000
  0
VERTEX
  8
gg1
 10
0.497500
 20
0.450000
  0
SEQEND
  8
gg1
  0
POLYLINE
  8
gg1
 62
1
 40
0.000000
 41
0.000000
 66
  1
  0
VERTEX
  8
gg1
 10
0.490000
 20
0.442500
  0
VERTEX
  8
gg1
 10
0.490000
 20
0.457500
  0
SEQEND
  8
gg1
  0
POLYLINE
  8
gg1
 62
1
 40
0.000000
 41
0.000000
 66
  1
  0
VERTEX
  8
gg1
 10
0.667500
 20
0.300000
  0
VERTEX
  8
gg1
 10
0.682500
 20
0.300000
  0
SEQEND
  8
gg1
  0
POLYLINE
  8
gg1
 62
1
 40
0.000000
 41
0.000000
 66
  1
  0
VERTEX
  8
gg1
 10
0.675000
 20
0.292500
  0
VERTEX
  8
gg1
 10
0.675000
 20
0.307500
  0
SEQEND
  8
gg1
  0
POLYLINE
  8
gg1
 62
1
 40
0.000000
 41
0.000000
 66
  1
  0
VERTEX
  8
gg1
 10
0.577500
 20
0.300000
  0
VERTEX
  8
gg1
 10
0.592500
 20
0.300000
  0
SEQEND
  8
gg1
  0
POLYLINE
  8
gg1
 62
1
 40
0.000000
 41
0.000000
 66
  1
  0
VERTEX
  8
gg1
 10
0.585000
 20
0.292500
  0
VERTEX
  8
gg1
 10
0.585000
 20
0.307500
  0
SEQEND
  8
gg1
  0
POLYLINE
  8
gg1
 62
1
 40
0.000000
 41
0.000000
 66
  1
  0
VERTEX
  8
gg1
 10
0.432500
 20
0.300000
  0
VERTEX
  8
gg1
 10
0.447500
 20
0.300000
  0
SEQEND
  8
gg1
  0
POLYLINE
  8
gg1
 62
1
 40
0.000000
 41
0.000000
 66
  1
  0
VERTEX
  8
gg1
 10
0.440000
 20
0.292500
  0
VERTEX
  8
gg1
 10
0.440000
 20
0.307500
  0
SEQEND
  8
gg1
  0
POLYLINE
  8
gg1
 62
1
 40
0.000000
 41
0.000000
 66
  1
  0
VERTEX
  8
gg1
 10
0.342500
 20
0.300000
  0
VERTEX
  8
gg1
 10
0.357500
 20
0.300000
  0
SEQEND
  8
gg1
  0
POLYLINE
  8
gg1
 62
1
 40
0.000000
 41
0.000000
 66
  1
  0
VERTEX
  8
gg1
 10
0.350000
 20
0.292500
  0
VERTEX
  8
gg1
 10
0.350000
 20
0.307500
  0
SEQEND
  8
gg1
  0
POLYLINE
  8
gg1
 62
1
 40
0.000000
 41
0.000000
 66
  1
  0
VERTEX
  8
gg1
 10
0.247500
 20
0.300000
  0
VERTEX
  8
gg1
 10
0.262500
 20
0.300000
  0
SEQEND
  8
gg1
  0
POLYLINE
  8
gg1
 62
1
 40
0.000000
 41
0.000000
 66
  1
  0
VERTEX
  8
gg1
 10
0.255000
 20
0.292500
  0
VERTEX
  8
gg1
 10
0.255000
 20
0.307500
  0
SEQEND
  8
gg1
  0
POLYLINE
  8
gg1
 62
1
 40
0.000000
 41
0.000000
 66
  1
  0
VERTEX
  8
gg1
 10
0.687500
 20
0.430000
  0
VERTEX
  8
gg1
 10
0.702500
 20
0.430000
  0
SEQEND
  8
gg1
  0
POLYLINE
  8
gg1
 62
1
 40
0.000000
 41
0.000000
 66
  1
  0
VERTEX
  8
gg1
 10
0.695000
 20
0.422500
  0
VERTEX
  8
gg1
 10
0.695000
 20
0.437500
  0
SEQEND
  8
gg1
  0
POLYLINE
  8
gg1
 62
1
 40
0.000000
 41
0.000000
 66
  1
  0
VERTEX
  8
gg1
 10
0.532500
 20
0.382100
  0
VERTEX
  8
gg1
 10
0.547500
 20
0.382100
  0
SEQEND
  8
gg1
  0
POLYLINE
  8
gg1
 62
1
 40
0.000000
 41
0.000000
 66
  1
  0
VERTEX
  8
gg1
 10
0.540000
 20
0.374600
  0
VERTEX
  8
gg1
 10
0.540000
 20
0.389600
  0
SEQEND
  8
gg1
  0
POLYLINE
  8
gg1
 62
1
 40
0.000000
 41
0.000000
 66
  1
  0
VERTEX
  8
gg1
 10
0.452500
 20
0.450000
  0
VERTEX
  8
gg1
 10
0.467500
 20
0.450000
  0
SEQEND
  8
gg1
  0
POLYLINE
  8
gg1
 62
1
 40
0.000000
 41
0.000000
 66
  1
  0
VERTEX
  8
gg1
 10
0.460000
 20
0.442500
  0
VERTEX
  8
gg1
 10
0.460000
 20
0.457500
  0
SEQEND
  8
gg1
  0
POLYLINE
  8
gg1
 62
1
 40
0.000000
 41
0.000000
 66
  1
  0
VERTEX
  8
gg1
 10
0.482500
 20
0.815000
  0
VERTEX
  8
gg1
 10
0.497500
 20
0.815000
  0
SEQEND
  8
gg1
  0
POLYLINE
  8
gg1
 62
1
 40
0.000000
 41
0.000000
 66
  1
  0
VERTEX
  8
gg1
 10
0.490000
 20
0.807500
  0
VERTEX
  8
gg1
 10
0.490000
 20
0.822500
  0
SEQEND
  8
gg1
  0
POLYLINE
  8
gg1
 62
1
 40
0.000000
 41
0.000000
 66
  1
  0
VERTEX
  8
gg1
 10
0.482500
 20
0.770000
  0
VERTEX
  8
gg1
 10
0.497500
 20
0.770000
  0
SEQEND
  8
gg1
  0
POLYLINE
  8
gg1
 62
1
 40
0.000000
 41
0.000000
 66
  1
  0
VERTEX
  8
gg1
 10
0.490000
 20
0.762500
  0
VERTEX
  8
gg1
 10
0.490000
 20
0.777500
  0
SEQEND
  8
gg1
  0
POLYLINE
  8
gg1
 62
1
 40
0.000000
 41
0.000000
 66
  1
  0
VERTEX
  8
gg1
 10
0.482500
 20
0.725000
  0
VERTEX
  8
gg1
 10
0.497500
 20
0.725000
  0
SEQEND
  8
gg1
  0
POLYLINE
  8
gg1
 62
1
 40
0.000000
 41
0.000000
 66
  1
  0
VERTEX
  8
gg1
 10
0.490000
 20
0.717500
  0
VERTEX
  8
gg1
 10
0.490000
 20
0.732500
  0
SEQEND
  8
gg1
  0
POLYLINE
  8
gg1
 62
1
 40
0.000000
 41
0.000000
 66
  1
  0
VERTEX
  8
gg1
 10
0.482500
 20
0.680000
  0
VERTEX
  8
gg1
 10
0.497500
 20
0.680000
  0
SEQEND
  8
gg1
  0
POLYLINE
  8
gg1
 62
1
 40
0.000000
 41
0.000000
 66
  1
  0
VERTEX
  8
gg1
 10
0.490000
 20
0.672500
  0
VERTEX
  8
gg1
 10
0.490000
 20
0.687500
  0
SEQEND
  8
gg1
  0
POLYLINE
  8
gg1
 62
1
 40
0.000000
 41
0.000000
 66
  1
  0
VERTEX
  8
gg1
 10
0.482500
 20
0.635000
  0
VERTEX
  8
gg1
 10
0.497500
 20
0.635000
  0
SEQEND
  8
gg1
  0
POLYLINE
  8
gg1
 62
1
 40
0.000000
 41
0.000000
 66
  1
  0
VERTEX
  8
gg1
 10
0.490000
 20
0.627500
  0
VERTEX
  8
gg1
 10
0.490000
 20
0.642500
  0
SEQEND
  8
gg1
  0
POLYLINE
  8
gg1
 62
1
 40
0.000000
 41
0.000000
 66
  1
  0
VERTEX
  8
gg1
 10
0.410900
 20
0.635000
  0
VERTEX
  8
gg1
 10
0.425900
 20
0.635000
  0
SEQEND
  8
gg1
  0
POLYLINE
  8
gg1
 62
1
 40
0.000000
 41
0.000000
 66
  1
  0
VERTEX
  8
gg1
 10
0.418400
 20
0.627500
  0
VERTEX
  8
gg1
 10
0.418400
 20
0.642500
  0
SEQEND
  8
gg1
  0
POLYLINE
  8
gg1
 62
1
 40
0.000000
 41
0.000000
 66
  1
  0
VERTEX
  8
gg1
 10
0.410900
 20
0.680000
  0
VERTEX
  8
gg1
 10
0.425900
 20
0.680000
  0
SEQEND
  8
gg1
  0
POLYLINE
  8
gg1
 62
1
 40
0.000000
 41
0.000000
 66
  1
  0
VERTEX
  8
gg1
 10
0.418400
 20
0.672500
  0
VERTEX
  8
gg1
 10
0.418400
 20
0.687500
  0
SEQEND
  8
gg1
  0
POLYLINE
  8
gg1
 62
1
 40
0.000000
 41
0.000000
 66
  1
  0
VERTEX
  8
gg1
 10
0.410900
 20
0.725000
  0
VERTEX
  8
gg1
 10
0.425900
 20
0.725000
  0
SEQEND
  8
gg1
  0
POLYLINE
  8
gg1
 62
1
 40
0.000000
 41
0.000000
 66
  1
  0
VERTEX
  8
gg1
 10
0.418400
 20
0.717500
  0
VERTEX
  8
gg1
 10
0.418400
 20
0.732500
  0
SEQEND
  8
gg1
  0
POLYLINE
  8
gg1
 62
1
 40
0.000000
 41
0.000000
 66
  1
  0
VERTEX
  8
gg1
 10
0.410900
 20
0.770000
  0
VERTEX
  8
gg1
 10
0.425900
 20
0.770000
  0
SEQEND
  8
gg1
  0
POLYLINE
  8
gg1
 62
1
 40
0.000000
 41
0.000000
 66
  1
  0
VERTEX
  8
gg1
 10
0.418400
 20
0.762500
  0
VERTEX
  8
gg1
 10
0.418400
 20
0.777500
  0
SEQEND
  8
gg1
  0
POLYLINE
  8
gg1
 62
1
 40
0.000000
 41
0.000000
 66
  1
  0
VERTEX
  8
gg1
 10
0.410900
 20
0.815000
  0
VERTEX
  8
gg1
 10
0.425900
 20
0.815000
  0
SEQEND
  8
gg1
  0
POLYLINE
  8
gg1
 62
1
 40
0.000000
 41
0.000000
 66
  1
  0
VERTEX
  8
gg1
 10
0.418400
 20
0.807500
  0
VERTEX
  8
gg1
 10
0.418400
 20
0.822500
  0
SEQEND
  8
gg1
  0
POLYLINE
  8
gg1
 62
1
 40
0.000000
 41
0.000000
 66
  1
  0
VERTEX
  8
gg1
 10
0.092500
 20
0.705000
  0
VERTEX
  8
gg1
 10
0.107500
 20
0.705000
  0
SEQEND
  8
gg1
  0
POLYLINE
  8
gg1
 62
1
 40
0.000000
 41
0.000000
 66
  1
  0
VERTEX
  8
gg1
 10
0.100000
 20
0.697500
  0
VERTEX
  8
gg1
 10
0.100000
 20
0.712500
  0
SEQEND
  8
gg1
  0
POLYLINE
  8
gg1
 62
1
 40
0.000000
 41
0.000000
 66
  1
  0
VERTEX
  8
gg1
 10
0.047500
 20
0.705000
  0
VERTEX
  8
gg1
 10
0.062500
 20
0.705000
  0
SEQEND
  8
gg1
  0
POLYLINE
  8
gg1
 62
1
 40
0.000000
 41
0.000000
 66
  1
  0
VERTEX
  8
gg1
 10
0.055000
 20
0.697500
  0
VERTEX
  8
gg1
 10
0.055000
 20
0.712500
  0
SEQEND
  8
gg1
  0
POLYLINE
  8
gg1
 62
1
 40
0.000000
 41
0.000000
 66
  1
  0
VERTEX
  8
gg1
 10
0.047500
 20
0.750000
  0
VERTEX
  8
gg1
 10
0.062500
 20
0.750000
  0
SEQEND
  8
gg1
  0
POLYLINE
  8
gg1
 62
1
 40
0.000000
 41
0.000000
 66
  1
  0
VERTEX
  8
gg1
 10
0.055000
 20
0.742500
  0
VERTEX
  8
gg1
 10
0.055000
 20
0.757500
  0
SEQEND
  8
gg1
  0
POLYLINE
  8
gg1
 62
1
 40
0.000000
 41
0.000000
 66
  1
  0
VERTEX
  8
gg1
 10
0.092500
 20
0.750000
  0
VERTEX
  8
gg1
 10
0.107500
 20
0.750000
  0
SEQEND
  8
gg1
  0
POLYLINE
  8
gg1
 62
1
 40
0.000000
 41
0.000000
 66
  1
  0
VERTEX
  8
gg1
 10
0.100000
 20
0.742500
  0
VERTEX
  8
gg1
 10
0.100000
 20
0.757500
  0
SEQEND
  8
gg1
  0
POLYLINE
  8
gg1
 62
1
 40
0.000000
 41
0.000000
 66
  1
  0
VERTEX
  8
gg1
 10
0.092500
 20
0.795000
  0
VERTEX
  8
gg1
 10
0.107500
 20
0.795000
  0
SEQEND
  8
gg1
  0
POLYLINE
  8
gg1
 62
1
 40
0.000000
 41
0.000000
 66
  1
  0
VERTEX
  8
gg1
 10
0.100000
 20
0.787500
  0
VERTEX
  8
gg1
 10
0.100000
 20
0.802500
  0
SEQEND
  8
gg1
  0
POLYLINE
  8
gg1
 62
1
 40
0.000000
 41
0.000000
 66
  1
  0
VERTEX
  8
gg1
 10
0.047500
 20
0.795000
  0
VERTEX
  8
gg1
 10
0.062500
 20
0.795000
  0
SEQEND
  8
gg1
  0
POLYLINE
  8
gg1
 62
1
 40
0.000000
 41
0.000000
 66
  1
  0
VERTEX
  8
gg1
 10
0.055000
 20
0.787500
  0
VERTEX
  8
gg1
 10
0.055000
 20
0.802500
  0
SEQEND
  8
gg1
  0
POLYLINE
  8
gg1
 62
1
 40
0.000000
 41
0.000000
 66
  1
  0
VERTEX
  8
gg1
 10
0.047500
 20
0.840000
  0
VERTEX
  8
gg1
 10
0.062500
 20
0.840000
  0
SEQEND
  8
gg1
  0
POLYLINE
  8
gg1
 62
1
 40
0.000000
 41
0.000000
 66
  1
  0
VERTEX
  8
gg1
 10
0.055000
 20
0.832500
  0
VERTEX
  8
gg1
 10
0.055000
 20
0.847500
  0
SEQEND
  8
gg1
  0
POLYLINE
  8
gg1
 62
1
 40
0.000000
 41
0.000000
 66
  1
  0
VERTEX
  8
gg1
 10
0.092500
 20
0.840000
  0
VERTEX
  8
gg1
 10
0.107500
 20
0.840000
  0
SEQEND
  8
gg1
  0
POLYLINE
  8
gg1
 62
1
 40
0.000000
 41
0.000000
 66
  1
  0
VERTEX
  8
gg1
 10
0.100000
 20
0.832500
  0
VERTEX
  8
gg1
 10
0.100000
 20
0.847500
  0
SEQEND
  8
gg1
  0
POLYLINE
  8
gg1
 62
1
 40
0.000000
 41
0.000000
 66
  1
  0
VERTEX
  8
gg1
 10
0.837500
 20
0.840000
  0
VERTEX
  8
gg1
 10
0.852500
 20
0.840000
  0
SEQEND
  8
gg1
  0
POLYLINE
  8
gg1
 62
1
 40
0.000000
 41
0.000000
 66
  1
  0
VERTEX
  8
gg1
 10
0.845000
 20
0.832500
  0
VERTEX
  8
gg1
 10
0.845000
 20
0.847500
  0
SEQEND
  8
gg1
  0
POLYLINE
  8
gg1
 62
1
 40
0.000000
 41
0.000000
 66
  1
  0
VERTEX
  8
gg1
 10
0.837500
 20
0.795000
  0
VERTEX
  8
gg1
 10
0.852500
 20
0.795000
  0
SEQEND
  8
gg1
  0
POLYLINE
  8
gg1
 62
1
 40
0.000000
 41
0.000000
 66
  1
  0
VERTEX
  8
gg1
 10
0.845000
 20
0.787500
  0
VERTEX
  8
gg1
 10
0.845000
 20
0.802500
  0
SEQEND
  8
gg1
  0
POLYLINE
  8
gg1
 62
1
 40
0.000000
 41
0.000000
 66
  1
  0
VERTEX
  8
gg1
 10
0.837500
 20
0.750000
  0
VERTEX
  8
gg1
 10
0.852500
 20
0.750000
  0
SEQEND
  8
gg1
  0
POLYLINE
  8
gg1
 62
1
 40
0.000000
 41
0.000000
 66
  1
  0
VERTEX
  8
gg1
 10
0.845000
 20
0.742500
  0
VERTEX
  8
gg1
 10
0.845000
 20
0.757500
  0
SEQEND
  8
gg1
  0
POLYLINE
  8
gg1
 62
1
 40
0.000000
 41
0.000000
 66
  1
  0
VERTEX
  8
gg1
 10
0.837500
 20
0.660000
  0
VERTEX
  8
gg1
 10
0.852500
 20
0.660000
  0
SEQEND
  8
gg1
  0
POLYLINE
  8
gg1
 62
1
 40
0.000000
 41
0.000000
 66
  1
  0
VERTEX
  8
gg1
 10
0.845000
 20
0.652500
  0
VERTEX
  8
gg1
 10
0.845000
 20
0.667500
  0
SEQEND
  8
gg1
  0
POLYLINE
  8
gg1
 62
1
 40
0.000000
 41
0.000000
 66
  1
  0
VERTEX
  8
gg1
 10
0.837500
 20
0.705000
  0
VERTEX
  8
gg1
 10
0.852500
 20
0.705000
  0
SEQEND
  8
gg1
  0
POLYLINE
  8
gg1
 62
1
 40
0.000000
 41
0.000000
 66
  1
  0
VERTEX
  8
gg1
 10
0.845000
 20
0.697500
  0
VERTEX
  8
gg1
 10
0.845000
 20
0.712500
  0
SEQEND
  8
gg1
  0
POLYLINE
  8
gg1
 62
1
 40
0.000000
 41
0.000000
 66
  1
  0
VERTEX
  8
gg1
 10
0.607500
 20
0.705000
  0
VERTEX
  8
gg1
 10
0.622500
 20
0.705000
  0
SEQEND
  8
gg1
  0
POLYLINE
  8
gg1
 62
1
 40
0.000000
 41
0.000000
 66
  1
  0
VERTEX
  8
gg1
 10
0.615000
 20
0.697500
  0
VERTEX
  8
gg1
 10
0.615000
 20
0.712500
  0
SEQEND
  8
gg1
  0
POLYLINE
  8
gg1
 62
1
 40
0.000000
 41
0.000000
 66
  1
  0
VERTEX
  8
gg1
 10
0.652500
 20
0.705000
  0
VERTEX
  8
gg1
 10
0.667500
 20
0.705000
  0
SEQEND
  8
gg1
  0
POLYLINE
  8
gg1
 62
1
 40
0.000000
 41
0.000000
 66
  1
  0
VERTEX
  8
gg1
 10
0.660000
 20
0.697500
  0
VERTEX
  8
gg1
 10
0.660000
 20
0.712500
  0
SEQEND
  8
gg1
  0
POLYLINE
  8
gg1
 62
1
 40
0.000000
 41
0.000000
 66
  1
  0
VERTEX
  8
gg1
 10
0.652500
 20
0.750000
  0
VERTEX
  8
gg1
 10
0.667500
 20
0.750000
  0
SEQEND
  8
gg1
  0
POLYLINE
  8
gg1
 62
1
 40
0.000000
 41
0.000000
 66
  1
  0
VERTEX
  8
gg1
 10
0.660000
 20
0.742500
  0
VERTEX
  8
gg1
 10
0.660000
 20
0.757500
  0
SEQEND
  8
gg1
  0
POLYLINE
  8
gg1
 62
1
 40
0.000000
 41
0.000000
 66
  1
  0
VERTEX
  8
gg1
 10
0.607500
 20
0.750000
  0
VERTEX
  8
gg1
 10
0.622500
 20
0.750000
  0
SEQEND
  8
gg1
  0
POLYLINE
  8
gg1
 62
1
 40
0.000000
 41
0.000000
 66
  1
  0
VERTEX
  8
gg1
 10
0.615000
 20
0.742500
  0
VERTEX
  8
gg1
 10
0.615000
 20
0.757500
  0
SEQEND
  8
gg1
  0
POLYLINE
  8
gg1
 62
1
 40
0.000000
 41
0.000000
 66
  1
  0
VERTEX
  8
gg1
 10
0.607500
 20
0.795000
  0
VERTEX
  8
gg1
 10
0.622500
 20
0.795000
  0
SEQEND
  8
gg1
  0
POLYLINE
  8
gg1
 62
1
 40
0.000000
 41
0.000000
 66
  1
  0
VERTEX
  8
gg1
 10
0.615000
 20
0.787500
  0
VERTEX
  8
gg1
 10
0.615000
 20
0.802500
  0
SEQEND
  8
gg1
  0
POLYLINE
  8
gg1
 62
1
 40
0.000000
 41
0.000000
 66
  1
  0
VERTEX
  8
gg1
 10
0.652500
 20
0.795000
  0
VERTEX
  8
gg1
 10
0.667500
 20
0.795000
  0
SEQEND
  8
gg1
  0
POLYLINE
  8
gg1
 62
1
 40
0.000000
 41
0.000000
 66
  1
  0
VERTEX
  8
gg1
 10
0.660000
 20
0.787500
  0
VERTEX
  8
gg1
 10
0.660000
 20
0.802500
  0
SEQEND
  8
gg1
  0
POLYLINE
  8
gg1
 62
1
 40
0.000000
 41
0.000000
 66
  1
  0
VERTEX
  8
gg1
 10
0.652500
 20
0.840000
  0
VERTEX
  8
gg1
 10
0.667500
 20
0.840000
  0
SEQEND
  8
gg1
  0
POLYLINE
  8
gg1
 62
1
 40
0.000000
 41
0.000000
 66
  1
  0
VERTEX
  8
gg1
 10
0.660000
 20
0.832500
  0
VERTEX
  8
gg1
 10
0.660000
 20
0.847500
  0
SEQEND
  8
gg1
  0
POLYLINE
  8
gg1
 62
1
 40
0.000000
 41
0.000000
 66
  1
  0
VERTEX
  8
gg1
 10
0.607500
 20
0.840000
  0
VERTEX
  8
gg1
 10
0.622500
 20
0.840000
  0
SEQEND
  8
gg1
  0
POLYLINE
  8
gg1
 62
1
 40
0.000000
 41
0.000000
 66
  1
  0
VERTEX
  8
gg1
 10
0.615000
 20
0.832500
  0
VERTEX
  8
gg1
 10
0.615000
 20
0.847500
  0
SEQEND
  8
gg1
  0
POLYLINE
  8
gg1
 62
1
 40
0.000000
 41
0.000000
 66
  1
  0
VERTEX
  8
gg1
 10
0.277500
 20
0.705000
  0
VERTEX
  8
gg1
 10
0.292500
 20
0.705000
  0
SEQEND
  8
gg1
  0
POLYLINE
  8
gg1
 62
1
 40
0.000000
 41
0.000000
 66
  1
  0
VERTEX
  8
gg1
 10
0.285000
 20
0.697500
  0
VERTEX
  8
gg1
 10
0.285000
 20
0.712500
  0
SEQEND
  8
gg1
  0
POLYLINE
  8
gg1
 62
1
 40
0.000000
 41
0.000000
 66
  1
  0
VERTEX
  8
gg1
 10
0.232500
 20
0.705000
  0
VERTEX
  8
gg1
 10
0.247500
 20
0.705000
  0
SEQEND
  8
gg1
  0
POLYLINE
  8
gg1
 62
1
 40
0.000000
 41
0.000000
 66
  1
  0
VERTEX
  8
gg1
 10
0.240000
 20
0.697500
  0
VERTEX
  8
gg1
 10
0.240000
 20
0.712500
  0
SEQEND
  8
gg1
  0
POLYLINE
  8
gg1
 62
1
 40
0.000000
 41
0.000000
 66
  1
  0
VERTEX
  8
gg1
 10
0.232500
 20
0.750000
  0
VERTEX
  8
gg1
 10
0.247500
 20
0.750000
  0
SEQEND
  8
gg1
  0
POLYLINE
  8
gg1
 62
1
 40
0.000000
 41
0.000000
 66
  1
  0
VERTEX
  8
gg1
 10
0.240000
 20
0.742500
  0
VERTEX
  8
gg1
 10
0.240000
 20
0.757500
  0
SEQEND
  8
gg1
  0
POLYLINE
  8
gg1
 62
1
 40
0.000000
 41
0.000000
 66
  1
  0
VERTEX
  8
gg1
 10
0.277500
 20
0.750000
  0
VERTEX
  8
gg1
 10
0.292500
 20
0.750000
  0
SEQEND
  8
gg1
  0
POLYLINE
  8
gg1
 62
1
 40
0.000000
 41
0.000000
 66
  1
  0
VERTEX
  8
gg1
 10
0.285000
 20
0.742500
  0
VERTEX
  8
gg1
 10
0.285000
 20
0.757500
  0
SEQEND
  8
gg1
  0
POLYLINE
  8
gg1
 62
1
 40
0.000000
 41
0.000000
 66
  1
  0
VERTEX
  8
gg1
 10
0.277500
 20
0.795000
  0
VERTEX
  8
gg1
 10
0.292500
 20
0.795000
  0
SEQEND
  8
gg1
  0
POLYLINE
  8
gg1
 62
1
 40
0.000000
 41
0.000000
 66
  1
  0
VERTEX
  8
gg1
 10
0.285000
 20
0.787500
  0
VERTEX
  8
gg1
 10
0.285000
 20
0.802500
  0
SEQEND
  8
gg1
  0
POLYLINE
  8
gg1
 62
1
 40
0.000000
 41
0.000000
 66
  1
  0
VERTEX
  8
gg1
 10
0.232500
 20
0.795000
  0
VERTEX
  8
gg1
 10
0.247500
 20
0.795000
  0
SEQEND
  8
gg1
  0
POLYLINE
  8
gg1
 62
1
 40
0.000000
 41
0.000000
 66
  1
  0
VERTEX
  8
gg1
 10
0.240000
 20
0.787500
  0
VERTEX
  8
gg1
 10
0.240000
 20
0.802500
  0
SEQEND
  8
gg1
  0
POLYLINE
  8
gg1
 62
1
 40
0.000000
 41
0.000000
 66
  1
  0
VERTEX
  8
gg1
 10
0.232500
 20
0.840000
  0
VERTEX
  8
gg1
 10
0.247500
 20
0.840000
  0
SEQEND
  8
gg1
  0
POLYLINE
  8
gg1
 62
1
 40
0.000000
 41
0.000000
 66
  1
  0
VERTEX
  8
gg1
 10
0.240000
 20
0.832500
  0
VERTEX
  8
gg1
 10
0.240000
 20
0.847500
  0
SEQEND
  8
gg1
  0
POLYLINE
  8
gg1
 62
1
 40
0.000000
 41
0.000000
 66
  1
  0
VERTEX
  8
gg1
 10
0.277500
 20
0.840000
  0
VERTEX
  8
gg1
 10
0.292500
 20
0.840000
  0
SEQEND
  8
gg1
  0
POLYLINE
  8
gg1
 62
1
 40
0.000000
 41
0.000000
 66
  1
  0
VERTEX
  8
gg1
 10
0.285000
 20
0.832500
  0
VERTEX
  8
gg1
 10
0.285000
 20
0.847500
  0
SEQEND
  8
gg1
  0
POLYLINE
  8
gg1
 62
1
 40
0.000000
 41
0.000000
 66
  1
  0
VERTEX
  8
gg1
 10
0.837500
 20
0.615000
  0
VERTEX
  8
gg1
 10
0.852500
 20
0.615000
  0
SEQEND
  8
gg1
  0
POLYLINE
  8
gg1
 62
1
 40
0.000000
 41
0.000000
 66
  1
  0
VERTEX
  8
gg1
 10
0.845000
 20
0.607500
  0
VERTEX
  8
gg1
 10
0.845000
 20
0.622500
  0
SEQEND
  8
gg1
  0
POLYLINE
  8
gg1
 62
1
 40
0.000000
 41
0.000000
 66
  1
  0
VERTEX
  8
gg1
 10
0.836200
 20
0.570000
  0
VERTEX
  8
gg1
 10
0.851200
 20
0.570000
  0
SEQEND
  8
gg1
  0
POLYLINE
  8
gg1
 62
1
 40
0.000000
 41
0.000000
 66
  1
  0
VERTEX
  8
gg1
 10
0.843700
 20
0.562500
  0
VERTEX
  8
gg1
 10
0.843700
 20
0.577500
  0
SEQEND
  8
gg1
  0
POLYLINE
  8
gg1
 62
1
 40
0.000000
 41
0.000000
 66
  1
  0
VERTEX
  8
gg1
 10
0.182500
 20
0.295000
  0
VERTEX
  8
gg1
 10
0.197500
 20
0.295000
  0
SEQEND
  8
gg1
  0
POLYLINE
  8
gg1
 62
1
 40
0.000000
 41
0.000000
 66
  1
  0
VERTEX
  8
gg1
 10
0.190000
 20
0.287500
  0
VERTEX
  8
gg1
 10
0.190000
 20
0.302500
  0
SEQEND
  8
gg1
  0
POLYLINE
  8
gg1
 62
1
 40
0.000000
 41
0.000000
 66
  1
  0
VERTEX
  8
gg1
 10
0.285000
 20
0.370000
  0
VERTEX
  8
gg1
 10
0.300000
 20
0.370000
  0
SEQEND
  8
gg1
  0
POLYLINE
  8
gg1
 62
1
 40
0.000000
 41
0.000000
 66
  1
  0
VERTEX
  8
gg1
 10
0.292500
 20
0.362500
  0
VERTEX
  8
gg1
 10
0.292500
 20
0.377500
  0
SEQEND
  8
gg1
  0
POLYLINE
  8
gg1
 62
1
 40
0.000000
 41
0.000000
 66
  1
  0
VERTEX
  8
gg1
 10
0.395400
 20
0.382100
  0
VERTEX
  8
gg1
 10
0.410400
 20
0.382100
  0
SEQEND
  8
gg1
  0
POLYLINE
  8
gg1
 62
1
 40
0.000000
 41
0.000000
 66
  1
  0
VERTEX
  8
gg1
 10
0.402900
 20
0.374600
  0
VERTEX
  8
gg1
 10
0.402900
 20
0.389600
  0
SEQEND
  8
gg1
  0
ENDSEC
  0
EOF
